<?xml version="1.0" encoding="UTF-8" standalone="no"?>
<!-- Created with Inkscape (http://www.inkscape.org/) -->

<svg
   width="199.99998mm"
   height="160.09692mm"
   viewBox="0 0 199.99998 160.09692"
   version="1.1"
   id="svg5"
   xml:space="preserve"
   inkscape:version="1.2.2 (b0a8486541, 2022-12-01)"
   sodipodi:docname="polyamory.svg"
   xmlns:inkscape="http://www.inkscape.org/namespaces/inkscape"
   xmlns:sodipodi="http://sodipodi.sourceforge.net/DTD/sodipodi-0.dtd"
   xmlns="http://www.w3.org/2000/svg"
   xmlns:svg="http://www.w3.org/2000/svg"><sodipodi:namedview
     id="namedview7"
     pagecolor="#ffffff"
     bordercolor="#000000"
     borderopacity="0.25"
     inkscape:showpageshadow="2"
     inkscape:pageopacity="0.0"
     inkscape:pagecheckerboard="0"
     inkscape:deskcolor="#d1d1d1"
     inkscape:document-units="mm"
     showgrid="false"
     inkscape:zoom="0.49638342"
     inkscape:cx="4.0291435"
     inkscape:cy="634.5901"
     inkscape:window-width="1920"
     inkscape:window-height="1011"
     inkscape:window-x="0"
     inkscape:window-y="0"
     inkscape:window-maximized="1"
     inkscape:current-layer="layer1" /><defs
     id="defs2">
		
	
	
</defs><g
     inkscape:label="Layer 1"
     inkscape:groupmode="layer"
     id="layer1"
     transform="translate(-4.4708182,-43.706938)"><path
       id="path4-6"
       style="color:#000000;display:none;fill:#ff0000;-inkscape-stroke:none"
       inkscape:label="heart"
       d="m 67.568926,43.706538 c -27.08194,0 -48.81872,21.42514 -48.81872,48.355703 0,23.205689 7.49313,39.217969 21.00595,53.450999 1.36918,1.44216 2.80864,2.88014 4.28966,4.32274 3.66279,0.62907 7.57821,0.54007 11.55537,-0.31006 3.79881,-0.81201 7.4305,-2.30136 10.90838,-4.2385 -5.22079,-4.59251 -9.68741,-8.69789 -13.32167,-12.52585 -11.54069,-12.15579 -15.91583,-20.90099 -15.91583,-40.699329 0,-17.376643 12.5462,-29.834353 30.29686,-29.834353 12.26424,0 22.4677,6.9311 29.00547,17.699693 l 7.916314,13.03693 7.9158,-13.03693 c 6.53776,-10.768593 16.74176,-17.699693 29.00598,-17.699693 13.34281,0 23.74327,7.0399 28.08666,17.915703 1.3781,0.28314 2.7724,0.62134 4.18682,1.03353 6.49605,1.89304 12.01397,4.90738 16.50545,8.99842 -0.98792,-26.037203 -22.33284,-46.469003 -48.77893,-46.469003 -14.69153,0 -27.52101,6.51554 -36.92178,16.32252 -9.400774,-9.80698 -22.230244,-16.32252 -36.921784,-16.32252 z M 171.39929,100.30722 c -1.17401,14.26332 -5.80461,22.13081 -15.60577,32.45435 -10.5608,11.12368 -27.98927,24.48594 -51.30281,45.83544 -8.943834,-8.19036 -17.002664,-15.18819 -24.158734,-21.35218 -4.86613,3.42114 -10.01871,6.28468 -15.56288,8.17573 -0.8161,0.27836 -1.63154,0.53442 -2.44533,0.77256 10.10033,8.64615 21.91319,18.59518 35.82883,31.66008 l 6.338114,5.95106 6.3376,-5.95106 c 26.01452,-24.42414 44.88362,-38.10692 58.39644,-52.33996 6.69625,-7.05315 11.912,-14.54499 15.47244,-23.13088 -0.65299,-10.45057 -5.80424,-18.14664 -13.2979,-22.07514 z" /><path
       id="path861"
       style="display:inline;fill:#000700;fill-opacity:1;stroke:none;stroke-width:0.264584;stroke-opacity:1"
       inkscape:label="infinity"
       d="m 159.08749,79.128472 c -24.13418,0.0535 -42.11005,18.804916 -55.15529,31.801158 -0.42059,0.41897 -0.6281,0.46552 -1.07745,0.0145 C 92.970036,101.02343 83.776941,91.940208 72.947542,85.807134 61.52899,79.34043 49.559307,77.998136 38.830762,80.417282 c -1.366569,3.523263 -2.107882,7.43837 -2.107882,11.645284 0,2.990236 0.101871,5.724686 0.311092,8.260484 7.214674,-3.706068 16.39929,-4.252018 25.839767,0.19585 10.725049,5.0531 19.235097,14.87261 27.949198,22.91126 0.23231,0.21428 0.421765,0.35367 0.08372,0.69712 -10.03292,10.19264 -21.812653,22.39743 -35.854659,25.39897 -16.248114,3.47311 -31.497621,-5.66021 -32.47347,-25.25273 -0.0051,-1.39508 0.105149,-2.76078 0.300757,-4.09742 -3.062237,-8.19148 -4.677751,-17.37891 -4.677751,-28.113534 0,-0.344061 0.0059,-0.686647 0.01292,-1.028877 C 8.9612646,99.304307 3.1027799,111.30077 3.4251718,124.93085 4.269081,157.83538 33.61159,175.86087 64.21991,165.42088 c 15.041375,-5.13042 27.218961,-17.38527 38.532,-28.65975 0.48601,-0.48431 0.72571,-0.56041 1.25729,-0.0253 8.34429,8.39853 15.61419,15.47694 23.49004,21.02766 5.09763,-4.39343 9.7245,-8.35138 13.88236,-11.99927 -9.7179,-5.44593 -17.97108,-14.71787 -25.40362,-21.57284 -0.27662,-0.25506 -0.40624,-0.41536 -0.0687,-0.7581 9.72958,-9.87958 21.44021,-22.02682 35.14463,-25.203628 17.4178,-4.037646 32.53322,6.280748 33.15094,25.215518 0.0264,12.07028 -7.87493,22.40846 -19.12854,25.71626 -5.61203,5.52634 -12.08875,11.14874 -19.46962,17.46302 34.76155,9.40029 68.51359,-22.61272 54.59409,-60.3896 -4.69792,-12.74988 -13.86769,-21.211274 -27.06398,-25.05687 -4.89949,-1.427803 -9.57998,-2.059395 -14.04928,-2.049488 z" /></g></svg>
